#N canvas 799 387 564 461 10;
#X obj 98 128 loadbang;
#X obj 97 151 metro 1000;
#X obj 176 250 counter 0 1 5;
#X obj 169 204 bng 15 250 50 0 empty empty empty 17 7 0 10 -262144
-1 -1;
#X floatatom 165 306 5 0 0 0 - - -;
#X obj 88 287 s counter;
#X obj 67 119 bng 15 250 50 0 empty empty empty 17 7 0 10 -262144 -1
-1;
#X obj 353 235 dac~;
#X obj 367 141 osc~ 220;
#X obj 369 110 bng 15 250 50 0 empty empty empty 17 7 0 10 -262144
-1 -1;
#X obj 396 189 *~ 0.3;
#X connect 0 0 1 0;
#X connect 1 0 2 0;
#X connect 1 0 5 0;
#X connect 2 0 4 0;
#X connect 2 0 5 0;
#X connect 3 0 2 0;
#X connect 6 0 1 0;
#X connect 8 0 10 0;
#X connect 9 0 8 0;
#X connect 10 0 7 0;
#X connect 10 0 7 1;
